<?xml version="1.0" standalone="no"?><!DOCTYPE svg PUBLIC "-//W3C//DTD SVG 1.1//EN" "http://www.w3.org/Graphics/SVG/1.1/DTD/svg11.dtd"><svg t="1773668086163" class="icon" viewBox="0 0 1024 1024" version="1.1" xmlns="http://www.w3.org/2000/svg" p-id="17123" xmlns:xlink="http://www.w3.org/1999/xlink" width="200" height="200"><path d="M101.115987 1024A71.824451 71.824451 0 0 1 29.291536 952.175549V71.824451A71.824451 71.824451 0 0 1 101.115987 0h741.115988a154.081505 154.081505 0 0 1 152.476489 152.476489v718.645768a154.482759 154.482759 0 0 1-152.476489 152.877743z m0-956.188088a4.413793 4.413793 0 0 0-4.012539 4.012539v880.351098a4.012539 4.012539 0 0 0 4.012539 3.611285h741.115988a85.467085 85.467085 0 0 0 84.664577-84.664577V152.877743a86.269592 86.269592 0 0 0-85.065831-85.065831z" p-id="17124" fill="#ffffff"></path><path d="M420.112853 891.586207H350.294671a149.266458 149.266458 0 0 1-107.53605-70.62069c-28.890282-46.144201-31.297806-177.354232-16.050157-221.090909 19.260188-58.583072 84.263323-104.326019 141.241379-134.420063a186.984326 186.984326 0 0 1 185.379311-307.761755 183.774295 183.774295 0 0 1 114.75862 89.479624 187.38558 187.38558 0 0 1 16.050157 143.648903 183.774295 183.774295 0 0 1-40.125392 74.231975c54.971787 28.489028 123.586207 74.633229 143.648903 135.22257 15.247649 42.934169 13.241379 174.144201-15.648903 221.090909a149.266458 149.266458 0 0 1-107.134796 70.219436h-178.959248c-15.247649-0.401254-40.125392 0-65.805642 0zM359.523511 822.570533h296.125392a80.250784 80.250784 0 0 0 57.37931-40.125392 347.485893 347.485893 0 0 0 9.630094-163.711599c-12.840125-40.125392-74.231975-84.263323-156.890282-117.968652l-61.391849-25.278997-58.181819 25.278997c-83.059561 35.310345-142.043887 80.250784-154.081504 117.567398a346.683386 346.683386 0 0 0 9.630094 163.711599 80.250784 80.250784 0 0 0 57.780564 40.526646z m146.45768-604.689655A120.376176 120.376176 0 0 0 449.003135 441.37931l56.978056 30.896552 56.576803-30.896552a120.376176 120.376176 0 0 0 57.37931-71.021943 120.376176 120.376176 0 0 0-10.432602-91.887148 116.363636 116.363636 0 0 0-72.626959-56.175548 120.376176 120.376176 0 0 0-30.896552-4.413793z" p-id="17125" fill="#ffffff"></path><path d="M519.222571 702.194357h-31.297806a17.655172 17.655172 0 0 1-12.438872-5.216301 17.253918 17.253918 0 0 1-4.413793-12.840125l15.648903-186.583072a16.852665 16.852665 0 0 1 16.852665-15.648903 16.852665 16.852665 0 0 1 16.852664 15.648903l15.648903 186.583072a17.253918 17.253918 0 0 1-4.413793 12.840125 18.45768 18.45768 0 0 1-12.438871 5.216301z" p-id="17126" fill="#ffffff"></path></svg>